<svg width="36" height="36" viewBox="0 0 36 36" fill="none" xmlns="http://www.w3.org/2000/svg">
<g clip-path="url(#clip0_116_1707)">
<path d="M27.5625 0H8.4375C3.7776 0 0 3.7776 0 8.4375V27.5625C0 32.2224 3.7776 36 8.4375 36H27.5625C32.2224 36 36 32.2224 36 27.5625V8.4375C36 3.7776 32.2224 0 27.5625 0Z" fill="#F4F2ED"/>
<path d="M5.85506 28.553H10.3295V17.6865L3.9375 12.8926V26.6354C3.9375 27.6965 4.79728 28.553 5.85506 28.553Z" fill="#4285F4"/>
<path d="M25.6711 28.5531H30.1456C31.2066 28.5531 32.0632 27.6934 32.0632 26.6356V12.8926L25.6711 17.6866" fill="#34A853"/>
<path d="M25.6711 9.37628V17.686L32.0632 12.892V10.3349C32.0632 7.96356 29.3562 6.61159 27.461 8.03387" fill="#FBBC04"/>
<path d="M10.3289 17.6868V9.37723L17.9993 15.1298L25.6697 9.37695V17.6866L17.9993 23.4396" fill="#EA4335"/>
<path d="M3.9375 10.3349V12.8918L10.3295 17.6858V9.37628L8.53973 8.03387C6.6413 6.61159 3.9375 7.96356 3.9375 10.3349Z" fill="#C5221F"/>
</g>
<defs>
<clipPath id="clip0_116_1707">
<rect width="36" height="36" fill="white"/>
</clipPath>
</defs>
</svg>
