<svg width="65" height="73" viewBox="0 0 65 73" fill="none" xmlns="http://www.w3.org/2000/svg">
<path d="M26.4929 0.604964C27.3741 0.42561 28.635 0.220634 29.2967 0.150173C29.9568 0.0797128 31.2738 0.0140564 32.2207 0.00124535C33.1676 -0.00996429 34.6464 0.0556921 35.5052 0.150173C36.364 0.243053 37.8973 0.502476 38.9099 0.72827C39.9224 0.952463 41.3644 1.35121 42.1142 1.61223C42.8641 1.87325 44.2692 2.46416 45.2385 2.92696C46.2078 3.38976 47.6129 4.14881 48.3628 4.61481C49.1126 5.07921 50.3014 5.91032 51.0064 6.4612C51.7113 7.01207 52.8585 7.99532 53.5539 8.64547C54.2508 9.29563 55.3932 10.5127 56.0933 11.3502C56.7935 12.1861 57.8942 13.6642 58.5399 14.633C59.184 15.6019 60.1084 17.1504 60.5907 18.076C61.0745 19 61.7987 20.5869 62.1993 21.599C62.6014 22.6111 63.183 24.3406 63.4922 25.4423C63.8015 26.5425 64.1972 28.2367 64.3686 29.2055C64.5417 30.1744 64.7708 31.9391 64.8765 33.1289C64.9951 34.4549 65.0319 36.3124 64.9711 37.933C64.9166 39.3855 64.758 41.3328 64.617 42.2568C64.4776 43.1808 64.218 44.622 64.0402 45.4595C63.8623 46.297 63.356 48.0617 62.917 49.3829C62.478 50.704 61.7042 52.6497 61.1979 53.7066C60.6916 54.7635 59.8585 56.312 59.3474 57.1496C58.8363 57.9871 57.9054 59.3546 57.2757 60.1906C56.6477 61.0249 55.4492 62.4213 54.6113 63.2908C53.7734 64.162 52.4403 65.3982 51.6473 66.0388C50.8542 66.6777 49.5933 67.5985 48.8434 68.0837C48.0936 68.569 46.8327 69.2992 46.0396 69.7076C45.2465 70.1143 43.8766 70.726 42.9954 71.0671C42.1142 71.4066 40.6354 71.8742 39.711 72.1064C38.7865 72.3386 37.2356 72.6333 36.2663 72.763C35.2969 72.8911 33.6018 72.9984 32.5011 73C31.3988 73.0016 29.8863 72.9279 29.1365 72.835C28.3867 72.7422 27.0905 72.5244 26.2526 72.3498C25.4162 72.1753 23.9743 71.7797 23.0482 71.4707C22.1221 71.16 20.536 70.5082 19.5234 70.0214C18.5108 69.533 17.0688 68.7355 16.319 68.2455C15.5692 67.7571 14.3451 66.8811 13.5985 66.2966C12.8519 65.7137 11.6246 64.6248 10.87 63.8753C10.1169 63.1259 8.95216 61.8304 8.28084 60.9929C7.61113 60.1553 6.61617 58.7878 6.07142 57.9502C5.52668 57.1127 4.5862 55.4201 3.98057 54.187C3.37494 52.9539 2.61551 51.2245 2.29347 50.3437C1.97143 49.4629 1.46674 47.8055 1.17514 46.6605C0.881939 45.5156 0.521447 43.8213 0.372443 42.8973C0.205816 41.8532 0.0728341 39.8211 0.0215641 37.5327C-0.0297059 35.2235 0.011951 33.193 0.130513 32.088C0.234655 31.1192 0.494209 29.4618 0.7073 28.4049C0.920391 27.3479 1.32094 25.7274 1.59812 24.8018C1.87369 23.8762 2.42004 22.3276 2.80937 21.3588C3.2003 20.39 3.91969 18.8414 4.40835 17.9158C4.89862 16.9902 5.75419 15.549 6.31015 14.7131C6.86611 13.8772 7.78737 12.6153 8.35775 11.9107C8.92813 11.2061 10.2131 9.83369 11.2144 8.86326C12.2158 7.89123 13.6466 6.64055 14.3964 6.08487C15.1462 5.5292 16.444 4.66926 17.2803 4.17603C18.1167 3.68121 19.4881 2.9766 20.3245 2.60989C21.1608 2.24157 22.5323 1.71472 23.3686 1.43608C24.205 1.15904 25.6117 0.784318 26.4929 0.604964Z" fill="#E94783"/>
<path d="M27.0536 1.65282C27.7137 1.5199 28.8321 1.35176 29.537 1.27809C30.242 1.20443 31.3956 1.13397 32.1005 1.12276C32.8055 1.10995 34.1401 1.1724 35.0646 1.26208C35.989 1.35176 37.431 1.56794 38.269 1.74249C39.1069 1.91544 40.4752 2.27895 41.3131 2.54798C42.1511 2.81862 43.9167 3.57607 45.2385 4.23103C46.5603 4.88599 48.3211 5.90927 49.1494 6.50499C49.9794 7.1007 51.3092 8.16401 52.1071 8.86862C52.9033 9.57322 54.2316 10.9424 55.0583 11.9112C55.8834 12.8801 57.0146 14.3581 57.5705 15.1941C58.1265 16.03 58.982 17.4712 59.4723 18.3968C59.961 19.3224 60.6804 20.8709 61.0713 21.8398C61.4606 22.8086 62.007 24.394 62.2858 25.3628C62.5645 26.3316 62.9314 27.8097 63.0997 28.6456C63.2695 29.4815 63.4858 30.7786 63.5819 31.5281C63.6765 32.2775 63.8062 34.0246 63.8703 35.4114C63.9681 37.5973 63.952 37.9352 63.7437 37.9368C63.6124 37.9384 61.0889 37.53 58.1361 37.0288C55.1833 36.5276 52.7143 36.076 52.6502 36.0248C52.5845 35.9735 52.4563 35.1024 52.365 34.0903C52.2737 33.0782 52.0125 31.4192 51.785 30.4071C51.5575 29.3951 51.1554 27.9538 50.8926 27.2044C50.6282 26.4549 50.0274 25.0874 49.558 24.1618C49.0885 23.2362 48.2474 21.835 47.6914 21.0471C47.1355 20.2592 46.0668 18.9989 45.317 18.2447C44.5688 17.492 43.271 16.4175 42.433 15.8554C41.5967 15.2949 40.5889 14.6736 40.1916 14.4734C39.7942 14.2733 38.8586 13.8937 38.1087 13.6279C37.3589 13.3637 35.989 13.021 35.0646 12.8657C33.8117 12.6575 32.9321 12.6094 31.6199 12.6815C30.548 12.7407 29.2294 12.9409 28.2553 13.1907C27.3741 13.4165 25.9674 13.929 25.131 14.3309C24.2947 14.7313 23.1091 15.3958 22.4986 15.8074C21.8882 16.2189 20.8147 17.0949 20.1114 17.7563C19.4096 18.416 18.3922 19.5338 17.8507 20.2384C17.3107 20.943 16.6827 21.8077 16.4552 22.16C16.2293 22.5123 15.7454 23.3947 15.3801 24.1217C15.0148 24.8487 14.5005 25.9825 14.2361 26.6439C13.9718 27.3037 13.5808 28.5111 13.3678 29.3262C13.1547 30.1413 12.8663 31.6178 12.7269 32.609C12.5875 33.6003 12.4737 34.7709 12.4737 35.2113C12.4737 35.9111 12.4289 36.0216 12.1132 36.092C11.9146 36.1353 9.4456 36.5676 6.62575 37.0512C3.8059 37.5365 1.3914 37.9336 1.25842 37.9336C1.05014 37.9352 1.03251 37.5413 1.12384 34.931C1.18953 33.0606 1.35776 31.203 1.56604 30.0068C1.7519 28.9499 2.07874 27.3997 2.29343 26.5638C2.50813 25.7279 2.94553 24.2867 3.26436 23.3611C3.58159 22.4355 4.33783 20.6708 4.94185 19.4377C5.54588 18.2046 6.48636 16.5104 7.03271 15.6745C7.57905 14.8385 8.51473 13.5414 9.11235 12.792C9.70836 12.0425 10.9805 10.6686 11.937 9.73816C12.8935 8.80616 14.2874 7.59072 15.0372 7.03664C15.7871 6.48097 17.1201 5.60181 18.0013 5.08296C18.8825 4.56252 20.3597 3.81948 21.2858 3.43034C22.2118 3.04121 23.617 2.53678 24.41 2.30778C25.2031 2.08038 26.3919 1.78413 27.0536 1.65282Z" fill="#F7FCFF"/>
<path d="M28.3354 14.3213C28.8193 14.1836 29.6492 14.009 30.1779 13.9322C30.7066 13.8553 31.6792 13.7832 32.3409 13.772C33.001 13.7608 34.2266 13.8681 35.0646 14.0106C35.9025 14.1532 37.0914 14.451 37.7082 14.672C38.325 14.893 39.2992 15.311 39.8711 15.5992C40.4431 15.8891 41.4349 16.4928 42.0742 16.9412C42.7134 17.3895 43.7629 18.2783 44.4069 18.9173C45.051 19.5562 45.9771 20.6195 46.4641 21.2793C46.9512 21.9407 47.6802 23.0568 48.084 23.7614C48.4877 24.466 49.0853 25.6911 49.4122 26.4838C49.739 27.2764 50.2069 28.7177 50.452 29.6865C50.6987 30.6553 50.9887 32.0597 51.0993 32.8092C51.2082 33.5586 51.298 35.2513 51.298 36.5724C51.2963 37.8936 51.2082 39.551 51.1009 40.2556C50.9935 40.9602 50.726 42.2573 50.5065 43.1381C50.2886 44.0188 49.8528 45.388 49.5404 46.1807C49.2279 46.9734 48.6175 48.2705 48.1833 49.0632C47.7491 49.8558 47.0201 51.0088 46.5635 51.6254C46.1053 52.2419 45.1119 53.3581 44.3541 54.1075C43.5946 54.8569 42.4747 55.805 41.8643 56.2165C41.2522 56.6281 40.0682 57.2878 39.2303 57.6834C38.3923 58.0773 37.0962 58.5545 36.3463 58.7435C35.5965 58.9324 34.2266 59.131 33.3022 59.1823C32.2944 59.2399 31.0735 59.1999 30.258 59.083C29.5082 58.9757 28.2473 58.673 27.4542 58.4104C26.6611 58.1478 25.4707 57.6417 24.8106 57.2862C24.1489 56.9307 23.1395 56.295 22.5675 55.8722C21.9955 55.4494 20.8772 54.4262 20.0841 53.5999C19.291 52.7719 18.2592 51.5213 17.7898 50.8199C17.3204 50.1169 16.5882 48.823 16.1636 47.9422C15.7374 47.0614 15.1654 45.657 14.8898 44.8195C14.6143 43.982 14.2297 42.5055 14.0343 41.5367C13.7315 40.0394 13.6786 39.2707 13.685 36.4123C13.6914 33.533 13.7459 32.8076 14.0567 31.368C14.257 30.4424 14.6399 29.0011 14.9059 28.1652C15.1734 27.3293 15.7005 25.9953 16.0771 25.2027C16.4552 24.41 17.2226 23.0776 17.7834 22.2433C18.3442 21.409 19.3792 20.1215 20.0841 19.3833C20.7891 18.6434 21.8353 17.6954 22.4073 17.2742C22.9793 16.8531 23.8813 16.2558 24.41 15.9467C24.9388 15.6376 25.8408 15.2021 26.4128 14.9779C26.9848 14.7521 27.8515 14.4574 28.3354 14.3213Z" fill="#F7FCFF"/>
<path d="M1.18472 39.2147C1.23599 39.1715 3.76905 38.6991 6.81321 38.1658L12.3472 37.1954L12.4914 38.6462C12.5699 39.4437 12.7862 40.8881 12.9688 41.857C13.1531 42.8258 13.5536 44.3759 13.8596 45.2999C14.164 46.2239 14.7296 47.6299 15.1141 48.4226C15.4987 49.2153 16.2693 50.5476 16.8253 51.3852C17.3812 52.2227 18.4867 53.5822 19.2814 54.407C20.0745 55.2317 21.1944 56.2565 21.7664 56.6841C22.3384 57.1101 23.3846 57.7827 24.0896 58.1782C24.7946 58.5721 26.1292 59.1454 27.0536 59.4529C27.9781 59.7604 29.348 60.0982 30.0978 60.2055C30.9181 60.3208 32.1935 60.3625 33.3022 60.3064C34.4461 60.2504 35.7215 60.0678 36.6668 59.826C37.5047 59.613 38.8377 59.1342 39.6308 58.7643C40.4239 58.3944 41.6848 57.6834 42.4346 57.1853C43.1845 56.6889 44.4806 55.592 45.3186 54.7496C46.1565 53.9073 47.2845 52.5718 47.826 51.7823C48.3691 50.9912 49.175 49.6236 49.6189 48.7429C50.0627 47.8621 50.6795 46.3841 50.9919 45.4601C51.3028 44.5361 51.7001 43.0948 51.8763 42.2573C52.051 41.4198 52.2368 40.2316 52.2881 39.615C52.3394 38.9985 52.4179 38.2058 52.538 37.213L63.7838 39.1346L63.6797 40.4157C63.622 41.1203 63.465 42.3454 63.332 43.1381C63.1974 43.9307 62.8449 45.5161 62.5469 46.6611C62.2489 47.8061 61.6705 49.6076 61.2604 50.6645C60.8518 51.7214 60.1276 53.3436 59.6518 54.2676C59.1759 55.1916 58.3652 56.5976 57.8509 57.3903C57.335 58.183 56.3336 59.5522 55.6239 60.4329C54.9157 61.3137 53.658 62.6781 52.8312 63.4659C52.0029 64.2522 50.6779 65.3764 49.8848 65.9625C49.0917 66.547 47.9382 67.3317 47.3213 67.7032C46.7045 68.0763 45.5157 68.7088 44.6777 69.1108C43.8398 69.5127 42.3081 70.1213 41.2731 70.4623C40.238 70.8034 38.5429 71.2422 37.5079 71.436C35.9426 71.7322 35.0726 71.7899 32.3409 71.7867C29.4185 71.7819 28.8353 71.7354 27.0536 71.3607C25.9529 71.1285 24.3668 70.7154 23.5288 70.4415C22.6925 70.1677 21.0695 69.4855 19.9239 68.9266C18.7783 68.3661 17.229 67.4982 16.4792 66.9954C15.731 66.4941 14.6159 65.6758 14.0022 65.1794C13.3902 64.683 12.2094 63.5924 11.3778 62.7549C10.5479 61.9174 9.27737 60.4409 8.55478 59.4721C7.8322 58.5033 6.90774 57.1693 6.50078 56.5096C6.09382 55.8482 5.31356 54.3717 4.76721 53.2267C4.21926 52.0818 3.42939 50.1009 3.01121 48.823C2.59304 47.5451 2.10277 45.7803 1.92173 44.8996C1.74068 44.0188 1.47952 42.3966 1.34013 41.2965C1.20234 40.1947 1.13185 39.2579 1.18472 39.2147Z" fill="#F7FCFF"/>
<path d="M32.2352 5.24384C32.4419 4.96681 32.8569 4.64173 33.1565 4.52002C33.4737 4.39191 34.1066 4.31825 34.6641 4.34547C35.1929 4.37109 35.7809 4.49921 35.9699 4.62892C36.2727 4.83549 36.2871 4.89795 36.0901 5.14456C35.917 5.36075 35.7921 5.38797 35.5453 5.26466C35.3691 5.17659 34.8916 5.10453 34.4847 5.10453C33.8326 5.10453 33.666 5.18299 33.0828 5.76109C32.4467 6.39363 32.4259 6.44648 32.5284 7.16229C32.6133 7.7548 32.7607 8.01903 33.2494 8.4514C33.8246 8.96224 33.9207 8.99267 34.7987 8.93181C35.5133 8.88377 35.768 8.92541 35.8738 9.10797C35.9731 9.28252 35.9042 9.40262 35.6174 9.54834C35.4011 9.65884 34.9013 9.74852 34.5039 9.74852C34.1034 9.74852 33.4977 9.60599 33.142 9.42824C32.7896 9.25209 32.3426 8.87416 32.1487 8.58752C31.9548 8.30087 31.7642 7.74359 31.7257 7.34645C31.6873 6.95091 31.7017 6.42726 31.7578 6.18545C31.8138 5.94365 32.0285 5.51928 32.2352 5.24384Z" fill="#E94783"/>
<path d="M26.0203 7.47456C26.4161 5.22943 26.4994 4.95239 26.799 4.89474C26.9832 4.85791 27.2043 4.81788 27.2909 4.80667C27.3774 4.79386 28.1528 5.82995 29.0132 7.10625C29.8736 8.38414 30.5609 9.45386 30.5385 9.48589C30.5161 9.51792 30.319 9.58678 30.0979 9.63962C29.7678 9.71969 29.6269 9.63482 29.2968 9.15921C29.0773 8.84214 28.861 8.52667 28.8161 8.45781C28.7729 8.38895 28.3034 8.43539 27.7747 8.5619C27.246 8.6868 26.7782 8.83093 26.7333 8.88057C26.69 8.93181 26.5811 9.30493 26.493 9.71008C26.3616 10.3122 26.2526 10.4707 25.8922 10.578C25.4948 10.6965 25.458 10.6741 25.5156 10.349C25.5509 10.1505 25.7784 8.85655 26.0203 7.47456Z" fill="#E94783"/>
<path d="M37.3077 10.0688L39.2704 7.9806C41.004 6.13741 41.2796 5.90361 41.6336 5.99169C41.8547 6.04774 42.0422 6.10378 42.0534 6.1182C42.063 6.13261 42.1175 7.42492 42.1736 8.98786C42.2521 11.209 42.2313 11.8303 42.0742 11.8335C41.9637 11.8351 41.7506 11.7438 41.6 11.6333C41.4238 11.502 41.31 11.1577 41.2331 9.87823L39.4707 9.13679L38.8298 9.75172C38.2642 10.293 38.1361 10.3474 37.3077 10.0688Z" fill="#E94783"/>
<path d="M43.5114 12.7111L45.096 10.6789C45.9676 9.55955 46.735 8.64196 46.8007 8.63716C46.8664 8.63076 47.3182 8.95263 47.8021 9.34817C48.2859 9.74531 48.8034 10.3026 48.9524 10.5892C49.0998 10.8759 49.22 11.4348 49.22 11.8303C49.22 12.2274 49.0998 12.7847 48.9524 13.0714C48.8034 13.358 48.4494 13.752 48.1626 13.9457C47.8565 14.1539 47.3118 14.3268 46.8408 14.3653C46.2463 14.4149 45.8746 14.3461 45.3988 14.0995C45.0463 13.9153 44.4775 13.5294 43.5114 12.7111Z" fill="#E94783"/>
<path d="M16.6491 11.6702C16.5642 11.4508 16.5418 11.2138 16.6011 11.1433C16.6603 11.0745 16.8286 11.2538 17.2403 12.0705L17.5015 11.5501C17.6441 11.2634 17.8331 11.0296 17.9213 11.0296C18.0281 11.0296 18.0281 11.1898 17.9213 11.51C17.8331 11.7743 17.7979 12.0273 17.8412 12.0705C17.886 12.1154 18.1552 12.0737 18.442 11.9792C18.9194 11.8223 18.9419 11.8287 18.7224 12.0673C18.591 12.2114 18.3555 12.3604 18.2016 12.4004C18.0478 12.4388 17.9181 12.5253 17.9149 12.591C17.9117 12.6566 18.1279 12.8007 18.3955 12.9112C18.6631 13.0217 18.8473 13.1835 18.8025 13.2715C18.7491 13.3783 18.5888 13.3783 18.3218 13.2715C18.1023 13.1835 17.886 13.1114 17.8412 13.1114C17.7979 13.1114 17.7979 13.3628 17.8412 13.6719C17.886 13.981 17.886 14.2324 17.8412 14.2324C17.7979 14.2324 17.6425 13.9986 17.2323 13.1915L16.976 13.7151C16.835 14.0034 16.6652 14.2372 16.5995 14.2356C16.5338 14.234 16.5049 14.1427 16.537 14.0322C16.569 13.9217 16.6411 13.6703 16.6972 13.4717C16.7901 13.145 16.7549 13.1194 16.3191 13.1915C16.0515 13.2363 15.8384 13.2011 15.8384 13.1114C15.8384 13.0233 15.9826 12.916 16.1589 12.8712C16.3351 12.828 16.4825 12.7367 16.4857 12.671C16.4889 12.6054 16.2726 12.4612 16.005 12.3508C15.7375 12.2403 15.5548 12.0785 15.5981 11.9904C15.6515 11.8837 15.8384 11.8837 16.1589 11.9904C16.4232 12.0785 16.6764 12.133 16.7212 12.1105C16.7677 12.0881 16.734 11.8912 16.6491 11.6702Z" fill="#E94783"/>
<path d="M48.3949 16.5175C48.5086 16.4086 49.3962 15.6752 50.3656 14.8873C51.3349 14.0979 52.1824 13.4477 52.2481 13.4429C52.3138 13.4365 52.8377 14.0082 53.4097 14.7128C53.9817 15.4174 54.4511 16.0483 54.4511 16.114C54.4527 16.1796 54.3262 16.319 54.1708 16.4214C53.9304 16.5832 53.7991 16.4967 53.2495 15.8081C52.897 15.3661 52.5189 14.9033 52.4084 14.7784C52.2369 14.5863 52.136 14.6055 51.7242 14.913C51.4583 15.1115 51.242 15.3277 51.2436 15.3934C51.2452 15.459 51.5352 15.8738 51.8876 16.3142C52.5157 17.0988 52.5221 17.1196 52.2081 17.3551C51.9069 17.5808 51.846 17.5424 50.5258 15.8546L49.925 16.3238C49.5244 16.6376 49.3685 16.8613 49.4571 16.9947C49.5292 17.1052 49.9282 17.6273 50.3431 18.1557C51.0737 19.0861 51.0882 19.123 50.7725 19.3167C50.5931 19.4272 50.4216 19.4993 50.3928 19.4769C50.364 19.4545 49.8561 18.8251 49.2633 18.0757C48.3901 16.9723 48.2267 16.6777 48.3949 16.5175Z" fill="#E94783"/>
<path d="M27.6145 16.4855C28.1432 16.2981 29.0453 16.0451 29.6172 15.9218C30.1908 15.8001 31.4341 15.6928 32.381 15.6864C33.3343 15.68 34.5872 15.7777 35.1848 15.9058C35.7793 16.0339 36.6637 16.2757 37.1475 16.4439C37.6314 16.612 38.4613 16.9723 38.99 17.2446C39.5188 17.5168 40.1436 17.8691 40.8021 18.3159L40.0283 20.8781C39.6037 22.2873 38.934 24.3419 38.5414 25.442C38.1505 26.5437 37.3782 28.5615 36.8287 29.9259C36.2775 31.2918 35.1512 33.7948 34.3245 35.4906C33.1581 37.8831 32.7591 38.5637 32.5412 38.5332C32.357 38.5076 31.8939 37.755 31.1858 36.3314C30.5946 35.1415 29.6445 33.0886 29.0741 31.7674C28.5037 30.4463 27.5985 28.1948 27.065 26.7631C26.5298 25.3315 25.7415 23.0255 25.3138 21.6387C24.8844 20.2519 24.4838 18.9004 24.4245 18.6362C24.3204 18.1734 24.3605 18.1301 25.4836 17.4896C26.1277 17.1245 27.0858 16.6713 27.6145 16.4855Z" fill="#E94783"/>
<path d="M7.38208 21.2736C7.40611 21.2272 7.84511 20.4169 8.3546 19.4721C8.8657 18.5273 9.37039 17.757 9.47613 17.7586C9.58348 17.7586 9.76132 17.813 9.87508 17.8787C10.0305 17.9684 9.98403 18.1734 9.26945 19.5169L11.1344 20.5178C12.1598 21.0686 13.0426 21.6115 13.0971 21.7268C13.15 21.8405 13.0875 22.0311 12.9545 22.148C12.7494 22.3305 12.4402 22.212 10.8716 21.3425C9.85906 20.782 8.97465 20.3208 8.90896 20.3208C8.84327 20.3192 8.62698 20.6347 8.4283 21.0238C8.09505 21.6756 8.04057 21.7156 7.70251 21.5443C7.50064 21.4418 7.35644 21.3201 7.38208 21.2736Z" fill="#E94783"/>
<path d="M51.3814 20.9437C51.3717 20.8925 52.4308 20.3384 53.7366 19.7139C55.0424 19.0877 56.1238 18.5897 56.1399 18.6057C56.1575 18.6233 56.2504 18.7803 56.3481 18.9564C56.5003 19.2319 56.369 19.4897 55.4044 20.798C54.7876 21.6355 54.2861 22.3738 54.2877 22.4394C54.2893 22.5051 55.1385 22.5579 56.1735 22.5547C58.0304 22.5499 58.0593 22.5563 58.2563 22.9551C58.4563 23.3596 58.4518 23.3618 56.1251 24.5158L56.1142 24.5212C53.8343 25.6502 53.7638 25.6742 53.5475 25.3619C53.4241 25.1858 53.3264 25.0064 53.3296 24.9616C53.3312 24.9184 53.9096 24.6109 54.613 24.281C55.3179 23.9511 55.8931 23.6084 55.8931 23.5204C55.8931 23.4307 55.3468 23.3426 54.6546 23.3202C53.4978 23.2833 53.4065 23.2545 53.2639 22.8798C53.1341 22.5339 53.2143 22.3465 53.8519 21.5186C54.2589 20.9902 54.5601 20.5034 54.5216 20.4377C54.4832 20.372 53.8567 20.6139 53.1293 20.9742C51.8732 21.5987 51.7979 21.6163 51.6041 21.3345C51.4935 21.1711 51.3926 20.9966 51.3814 20.9437Z" fill="#E94783"/>
<path d="M19.336 23.2801C19.8679 22.4875 20.6514 21.4514 21.076 20.979C21.7938 20.1783 21.861 20.1398 22.0549 20.4185C22.1703 20.5834 22.7214 21.5827 23.2822 22.6396C23.843 23.6965 24.785 25.6069 25.3762 26.8832C25.9675 28.1611 26.9047 30.323 27.4575 31.6874C28.0102 33.0517 28.8306 35.2328 29.2808 36.5315C29.7294 37.8302 30.0979 39.0377 30.0979 39.2138C30.0979 39.39 30.0082 39.5725 29.8976 39.619C29.7871 39.667 28.6159 39.3339 27.2941 38.8791C25.9723 38.4244 23.7741 37.6045 22.4074 37.0552C21.0423 36.5075 18.9322 35.6155 15.518 34.0894L15.6093 33.4889C15.659 33.159 15.8096 32.3119 15.9426 31.6073C16.0755 30.9027 16.404 29.6424 16.67 28.8049C16.9375 27.969 17.4278 26.7071 17.761 26.0025C18.0959 25.2979 18.8041 24.0728 19.336 23.2801Z" fill="#E94783"/>
<path d="M40.8694 24.5612C41.3084 23.6805 41.9989 22.3481 42.4011 21.5987L43.1333 20.2375L44.0001 21.1984C44.4775 21.7268 45.2274 22.7004 45.6647 23.3602C46.1021 24.0216 46.7382 25.1377 47.0795 25.8423C47.4191 26.5469 47.9142 27.772 48.1802 28.5647C48.4445 29.3574 48.7842 30.6176 48.9348 31.3671C49.0854 32.1165 49.2152 33.0854 49.244 34.3168L47.2413 35.2408C46.1406 35.7485 43.9776 36.6644 42.4347 37.2762C40.8934 37.8863 38.6584 38.719 37.468 39.1226C35.5549 39.7743 35.2778 39.832 35.0647 39.6222C34.8516 39.4108 34.9205 39.1097 35.6831 36.9367C36.1558 35.5915 36.9601 33.4457 37.4712 32.1678C37.9823 30.8915 38.7753 29.0163 39.2352 28.0042C39.6934 26.9921 40.4288 25.442 40.8694 24.5612Z" fill="#E94783"/>
<path d="M6.33264 24.4956C6.26054 24.4427 6.24612 24.2394 6.3022 24.0408C6.35668 23.8422 6.43518 23.6805 6.47363 23.6805C6.51369 23.6805 7.50064 24.0344 8.66863 24.4668C9.83663 24.8975 10.9181 25.2947 11.0719 25.3475C11.2257 25.3988 11.3507 25.5317 11.3491 25.6422C11.3491 25.7527 11.2946 25.9352 11.2289 26.0489C11.1392 26.2091 10.572 26.0633 8.7888 25.4228C7.51185 24.9648 6.40634 24.5468 6.33264 24.4956Z" fill="#E94783"/>
<path d="M55.773 28.7248C56.8977 28.4926 56.9714 28.4478 58.1266 27.2804C59.2914 26.1034 59.3202 26.0858 59.4484 26.4797C59.5589 26.8224 59.4628 27.0178 58.8171 27.7672C58.3989 28.254 58.0929 28.6752 58.1362 28.7024C58.181 28.7296 58.6489 28.9074 59.1776 29.0979C59.9675 29.383 60.1581 29.5239 60.2447 29.8858C60.3039 30.1276 60.3392 30.347 60.3248 30.3726C60.3103 30.3983 59.615 30.1613 57.255 29.2741L56.0533 29.5367C55.0536 29.7529 54.8325 29.7609 54.7347 29.5816C54.669 29.4631 54.6146 29.2757 54.6146 29.1652C54.613 29.0451 55.076 28.8689 55.773 28.7248Z" fill="#E94783"/>
<path d="M5.70458 28.0699C5.37453 27.6615 5.28641 27.4133 5.35531 27.0834C5.44663 26.651 5.46746 26.6655 7.58716 29.0243L8.98907 28.435C9.75972 28.1099 10.4326 27.8617 10.4839 27.8841C10.5352 27.9065 10.5416 28.1051 10.4983 28.3245C10.4358 28.6351 10.1779 28.8337 9.35757 29.2052C8.77438 29.4695 8.30013 29.7033 8.30333 29.7257C8.30654 29.7481 8.41068 29.9275 8.53565 30.126C8.66543 30.331 9.0099 30.5376 9.33674 30.6064C9.76293 30.6961 9.91033 30.8082 9.91033 31.0468C9.91033 31.223 9.8206 31.4135 9.71005 31.4696C9.5995 31.5272 8.41068 31.3287 7.06644 31.0292C4.79935 30.5264 4.62311 30.4607 4.62311 30.126C4.62311 29.9275 4.67758 29.7369 4.74327 29.7001C4.80896 29.6632 5.40498 29.7625 6.06508 29.9194C6.72678 30.0764 7.30357 30.1805 7.34683 30.15C7.39169 30.1196 7.13854 29.7609 6.78606 29.3558C6.43358 28.949 5.94651 28.3709 5.70458 28.0699Z" fill="#E94783"/>
<path d="M15.9842 41.696C15.8032 40.8889 15.6189 39.3227 15.5661 38.1329C15.4972 36.5876 15.5212 36.0111 15.6542 36.0111C15.7551 36.0111 16.9375 36.4338 18.2818 36.9511C19.626 37.4667 21.6624 38.3043 22.8079 38.8119C23.9535 39.3195 25.756 40.1667 26.8134 40.6951C27.8709 41.2236 28.7841 41.736 28.8418 41.8353C28.9011 41.9346 28.9203 42.0883 28.8866 42.1764C28.853 42.2645 27.5793 42.9402 26.0572 43.6769C24.5335 44.4151 22.2071 45.4672 20.8853 46.0165C19.5635 46.5658 18.3378 47.0622 18.1616 47.1198C17.8844 47.2111 17.7723 47.059 17.322 45.9813C17.0353 45.2975 16.6908 44.3783 16.5546 43.9379C16.42 43.4975 16.1637 42.4886 15.9842 41.696Z" fill="#E94783"/>
<path d="M45.3187 37.6973C47.0378 37.0215 48.5871 36.4066 48.7634 36.3314C48.9396 36.2545 49.1735 36.1872 49.2841 36.1824C49.4171 36.1744 49.4844 36.4162 49.4844 36.8918C49.4844 37.289 49.4091 38.3155 49.3161 39.1738C49.2248 40.0321 48.9685 41.4926 48.749 42.4166C48.5279 43.3406 48.044 44.8395 47.6739 45.7442C47.3038 46.6506 46.9833 47.3889 46.9609 47.3857C46.9385 47.3841 46.0381 47.027 44.9582 46.5962C43.8783 46.1638 42.023 45.3679 40.8326 44.8283C39.6437 44.287 38.0928 43.5424 37.3878 43.1708C36.6172 42.7657 36.0901 42.3846 36.066 42.2164C36.0356 41.9986 36.7181 41.5983 39.1102 40.4309C40.8069 39.6046 43.6011 38.3731 45.3187 37.6973Z" fill="#E94783"/>
<path d="M6.64026 46.2199C7.8371 45.8643 7.87074 45.8403 8.82404 44.6185C9.35597 43.9363 9.819 43.3774 9.85105 43.3774C9.88309 43.3774 9.98403 43.576 10.0738 43.8178C10.2212 44.2117 10.1619 44.3543 8.7888 46.0998L9.91033 46.42C10.9021 46.7035 11.0415 46.7915 11.1152 47.1807C11.1616 47.4225 11.1809 47.6371 11.1552 47.6579C11.1312 47.6787 10.4278 47.4817 8.06781 46.7451L6.89501 47.1038C5.86961 47.4161 5.70458 47.4305 5.57641 47.2207C5.4947 47.0894 5.42741 46.8908 5.42741 46.7803C5.4258 46.6682 5.96093 46.4216 6.64026 46.2199Z" fill="#E94783"/>
<path d="M54.5841 44.3655C54.5697 44.2037 54.6178 44.0228 54.6915 43.9651C54.7652 43.9059 54.8677 43.8562 54.919 43.8546C54.9703 43.853 55.821 44.0516 56.8096 44.295C58.5656 44.729 58.604 44.7482 58.5095 45.1389C58.455 45.3599 58.4037 45.5521 58.3941 45.5665C58.3845 45.5809 57.5482 45.3839 56.534 45.1293C55.5214 44.8731 54.6739 44.6633 54.6514 44.6617C54.629 44.6601 54.6001 44.5272 54.5841 44.3655Z" fill="#E94783"/>
<path d="M22.4074 46.9421C23.4216 46.5353 25.4291 45.7923 26.8695 45.2895C28.3099 44.7866 29.5868 44.4119 29.7054 44.4551C29.8255 44.4968 29.9265 44.6873 29.9297 44.8763C29.9345 45.0653 29.5756 46.2631 29.1318 47.541C28.688 48.8189 27.9349 50.835 27.4591 52.0248C26.9816 53.2147 26.4433 54.5294 26.2623 54.9474C26.0812 55.3653 25.8601 55.708 25.772 55.708C25.6839 55.708 25.0526 55.3333 24.3701 54.8753C23.6875 54.4173 22.4795 53.3908 21.6864 52.5933C20.8933 51.7958 19.8631 50.566 18.5525 48.5819L19.5587 48.1319C20.1115 47.8837 21.3948 47.3488 22.4074 46.9421Z" fill="#E94783"/>
<path d="M35.4412 47.1887C34.8051 45.3919 34.701 44.9516 34.8644 44.7578C35.0422 44.5496 35.1656 44.5496 35.9058 44.7658C36.3689 44.9003 37.7564 45.3743 38.99 45.8195C40.2237 46.2647 42.3514 47.0926 43.7165 47.6595C45.0832 48.2264 46.2159 48.702 46.2351 48.7164C46.2544 48.7308 45.9339 49.2465 45.5222 49.863C45.112 50.4795 44.1587 51.6213 43.4041 52.4012C42.651 53.181 41.7105 54.057 41.3132 54.3452C40.9175 54.6351 40.2141 55.0963 38.9099 55.8681L38.6071 55.2676C38.4405 54.9377 37.8349 53.4773 37.2613 52.0248C36.6877 50.5724 35.8674 48.3961 35.4412 47.1887Z" fill="#E94783"/>
<path d="M58.9677 45.4592C58.9405 45.2398 59.0126 45.006 59.1279 44.942C59.2433 44.8763 59.3747 44.8235 59.4179 44.8235C59.4628 44.8235 59.5974 44.8843 59.7207 44.9596C59.8441 45.0348 59.9146 45.2638 59.881 45.4768C59.8345 45.7619 59.7159 45.8595 59.4179 45.8595C59.1103 45.8595 59.0062 45.7667 58.9677 45.4592Z" fill="#E94783"/>
<path d="M30.4488 48.9822C31.1457 47.5298 31.8283 46.1734 31.966 45.97C32.1022 45.7667 32.2977 45.6273 32.3986 45.661C32.4996 45.6962 32.8344 46.1862 33.1437 46.7515C33.4513 47.3184 34.113 48.6459 34.6113 49.7028C35.1095 50.7598 35.9619 52.7054 36.5066 54.0266C37.2773 55.8938 37.4503 56.4543 37.2821 56.5455C37.1651 56.6096 36.3833 56.8178 35.5453 57.0099C34.2411 57.3078 33.714 57.3446 31.8603 57.271C30.1972 57.2053 29.4282 57.0964 28.5326 56.8066C27.7587 56.5567 27.3694 56.347 27.3742 56.1884C27.379 56.0571 27.7875 54.9762 28.2826 53.7864C28.7761 52.5965 29.7518 50.4347 30.4488 48.9822Z" fill="#E94783"/>
<path d="M53.3649 48.2296C53.5619 47.9461 53.9769 47.5682 54.2877 47.3857C54.7123 47.139 55.0776 47.067 55.7601 47.099C56.3647 47.1268 56.8117 47.2474 57.1012 47.4609C57.3415 47.6371 57.6892 47.9846 57.8766 48.2328C58.1442 48.5899 58.2163 48.9134 58.2163 49.7669C58.2163 50.6573 58.1458 50.9503 57.8157 51.4291C57.5962 51.7494 57.1637 52.1562 56.8544 52.3339C56.5148 52.5277 55.9925 52.6574 55.5326 52.6606C55.1145 52.6638 54.5729 52.5677 54.331 52.446C54.0891 52.3259 53.6917 52.0024 53.4498 51.7254C53.2078 51.45 52.9371 50.9359 52.849 50.5836C52.7432 50.1592 52.7416 49.7397 52.8474 49.3425C52.9339 49.0127 53.1662 48.5114 53.3649 48.2296Z" fill="#E94783"/>
<path d="M8.4283 50.2569C8.67023 49.9895 9.1573 49.6644 9.50978 49.5363C9.8895 49.397 10.4118 49.3377 10.7915 49.389C11.144 49.437 11.6856 49.6404 11.9932 49.839C12.328 50.0552 12.7093 50.5228 12.9385 50.9936C13.2333 51.6005 13.3086 51.9736 13.2589 52.5949C13.214 53.1602 13.0602 53.5862 12.7542 53.9961C12.4882 54.3532 12.0444 54.6879 11.6327 54.8449C11.1809 55.0146 10.7098 55.0707 10.2308 55.0082C9.83502 54.9554 9.27907 54.7504 8.99548 54.5502C8.71189 54.35 8.34179 53.9353 8.17195 53.6262C8.00212 53.3188 7.81306 52.8496 7.75378 52.5853C7.6945 52.3211 7.72334 51.799 7.81787 51.4243C7.9108 51.0496 8.18637 50.5244 8.4283 50.2569Z" fill="#E94783"/>
<path d="M49.965 54.2572C50.1861 54.1034 50.6187 53.9049 50.9263 53.8152C51.2356 53.7255 51.7034 53.6903 51.9678 53.7383C52.2321 53.7864 52.6471 53.9241 52.889 54.0458C53.1309 54.1675 53.5075 54.4653 53.7254 54.7071C53.9433 54.949 54.1932 55.4358 54.2829 55.7881C54.4063 56.2685 54.3903 56.6288 54.2204 57.2293C54.0762 57.7434 53.8039 58.2046 53.4626 58.52C53.1694 58.7891 52.6407 59.1045 52.2882 59.2198C51.9133 59.3447 51.3814 59.3912 51.0064 59.3335C50.654 59.2791 50.1172 59.0357 49.8128 58.7923C49.51 58.5489 49.1223 58.0268 48.9524 57.6297C48.7281 57.1044 48.6737 56.7361 48.7538 56.2685C48.8147 55.9162 49.0213 55.3829 49.2136 55.0819C49.4075 54.7824 49.7455 54.4109 49.965 54.2572Z" fill="#E94783"/>
<path d="M12.2639 57.524C12.4242 57.2453 13.1211 56.5055 13.8133 55.8826C14.5054 55.258 15.1367 54.7472 15.2152 54.7472C15.2937 54.7472 15.4299 54.8913 15.518 55.0675C15.6574 55.3445 15.5084 55.5415 14.3981 56.5487C13.6931 57.1877 13.0522 57.8907 12.9737 58.1101C12.876 58.3823 12.9016 58.677 13.0522 59.0309C13.1756 59.3175 13.4191 59.6234 13.5954 59.7114C13.7716 59.7995 14.0968 59.8716 14.3163 59.8716C14.5935 59.8716 15.1511 59.476 17.5207 57.3174L18.1616 57.9595L16.976 59.0357C16.3223 59.6282 15.6013 60.2367 15.3738 60.3904C15.1447 60.5442 14.6688 60.6707 14.3163 60.6707C13.9559 60.6707 13.448 60.5314 13.1548 60.352C12.868 60.1758 12.5251 59.87 12.3905 59.6714C12.2575 59.4728 12.1085 59.0229 12.0621 58.6706C11.9996 58.219 12.0605 57.8811 12.2639 57.524Z" fill="#E94783"/>
<path d="M43.3961 60.5922C43.4041 60.5041 44.1459 59.878 45.0447 59.2022C45.9451 58.5248 46.735 57.966 46.8007 57.9611C46.8664 57.9547 46.9914 58.0764 47.0763 58.2302C47.2029 58.456 47.1051 58.6193 45.9227 59.6314L47.2221 61.3529C47.9383 62.2993 48.5231 63.1288 48.5231 63.1944C48.5247 63.2601 48.3805 63.4042 48.2026 63.5147C47.9078 63.6989 47.7844 63.5836 46.6549 62.0735C45.9804 61.1703 45.3844 60.3712 45.3331 60.2992C45.2818 60.2255 44.9149 60.3872 44.5176 60.6579C43.9376 61.055 43.7565 61.1127 43.5899 60.9525C43.4746 60.842 43.388 60.6803 43.3961 60.5922Z" fill="#E94783"/>
<path d="M21.8226 62.2737C22.0052 62.1423 22.3737 61.9454 22.6413 61.8365C22.9105 61.7276 23.4504 61.6763 23.8494 61.7212C24.2467 61.766 24.8587 61.971 25.2112 62.176C25.5637 62.3809 25.9082 62.6836 25.9771 62.8517C26.054 63.0375 26.0219 63.2361 25.897 63.3674C25.7271 63.5451 25.623 63.5147 25.2913 63.1912C25.0718 62.9767 24.6024 62.7236 24.2499 62.6292C23.8301 62.5171 23.4424 62.5107 23.1284 62.6099C22.864 62.6932 22.4859 62.8678 22.2872 62.9975C22.0886 63.1272 21.845 63.5051 21.7441 63.835C21.5855 64.3522 21.6063 64.5348 21.8979 65.1561C22.0918 65.5693 22.4426 65.9968 22.7214 66.157C22.989 66.3107 23.4616 66.4372 23.7693 66.4372C24.2739 66.4372 24.33 66.4821 24.3316 66.8776C24.3332 67.3084 24.3172 67.3164 23.5706 67.2331C23.1348 67.1851 22.5163 66.9625 22.127 66.7127C21.7297 66.458 21.3131 66.0113 21.1256 65.6365C20.9494 65.2842 20.8052 64.6901 20.8052 64.3154C20.8068 63.9039 20.9414 63.4138 21.1481 63.0743C21.3355 62.7669 21.6399 62.4066 21.8226 62.2737Z" fill="#E94783"/>
<path d="M38.1088 62.9142C38.1088 62.8261 38.2707 62.7332 38.4693 62.7076C38.668 62.682 38.849 62.6644 38.8731 62.6676C38.8955 62.6708 39.1647 63.7918 39.4675 65.1561C39.7719 66.5205 40.0234 67.6927 40.0266 67.7584C40.0299 67.824 39.852 67.9153 39.6309 67.9585C39.3025 68.0242 38.9147 67.7648 37.468 66.5173C36.4986 65.6798 35.6879 65.028 35.6655 65.0681C35.6431 65.1081 35.7825 65.9184 35.9747 66.8696C36.167 67.8208 36.3112 68.6103 36.2952 68.6231C36.2791 68.6375 36.0869 68.6727 35.869 68.7032C35.4796 68.7576 35.4604 68.7096 34.9525 66.3572C34.6673 65.036 34.4318 63.8654 34.4286 63.7549C34.4254 63.6444 34.6225 63.5307 34.8644 63.5003C35.2281 63.4555 35.5982 63.7053 36.9873 64.9367C37.9134 65.7566 38.6904 66.3395 38.7161 66.2323C38.7417 66.125 38.6151 65.3707 38.4357 64.5556C38.2562 63.7405 38.1088 63.0023 38.1088 62.9142Z" fill="#E94783"/>
<path d="M27.0569 68.3989C27.0601 68.3333 27.6802 67.1803 28.4364 65.8367C29.6108 63.7517 29.8688 63.3946 30.1956 63.3946C30.4055 63.3946 30.6426 63.5211 30.7195 63.6749C30.7964 63.8286 31.1922 65.036 31.5975 66.3572C32.0029 67.6783 32.3361 68.8137 32.3378 68.8793C32.3394 68.945 32.1423 68.9818 31.9004 68.9594C31.5302 68.9258 31.4213 68.8009 31.2194 68.1763C31.088 67.7664 30.9438 67.3981 30.899 67.3564C30.8557 67.3164 30.351 67.2347 28.736 67.0714L28.3755 67.7952C28.0679 68.4133 27.9446 68.519 27.5344 68.519C27.27 68.519 27.0553 68.4646 27.0569 68.3989Z" fill="#E94783"/>
<path d="M26.9223 7.92724C26.8935 7.91603 26.9159 7.56533 26.9704 7.14737C27.0264 6.72941 27.1386 6.38672 27.2219 6.38672C27.3052 6.38672 27.5568 6.65735 28.1832 7.58775L27.5776 7.7671C27.2459 7.86479 26.9511 7.93685 26.9223 7.92724Z" fill="#F7FCFF"/>
<path d="M39.9978 8.51655C39.9801 8.4541 40.2044 8.16905 40.4976 7.8824C40.7908 7.59416 41.1001 7.39719 41.1882 7.44363C41.2747 7.48847 41.3388 7.84717 41.3292 8.23791C41.3212 8.62865 41.2587 8.95052 41.193 8.95212C41.1273 8.95372 40.8389 8.88166 40.5521 8.79199C40.2653 8.70231 40.017 8.5774 39.9978 8.51655Z" fill="#F7FCFF"/>
<path d="M44.9181 12.8835C44.6088 12.6561 44.6361 12.6001 45.7849 11.1924C46.9032 9.82007 46.9913 9.74961 47.3069 9.95939C47.4912 10.0827 47.8068 10.427 48.0071 10.7264C48.2282 11.0579 48.3708 11.5063 48.3676 11.8714C48.3644 12.2974 48.2346 12.6145 47.9222 12.962C47.6194 13.2999 47.2813 13.4808 46.8407 13.5433C46.4097 13.6025 46.0412 13.5481 45.7192 13.3751C45.4548 13.2342 45.0943 13.0132 44.9181 12.8835Z" fill="#F7FCFF"/>
<path d="M53.9304 48.8216C54.0842 48.5558 54.4271 48.2291 54.6914 48.0962C54.9878 47.9456 55.4172 47.8816 55.8129 47.928C56.2888 47.9841 56.5884 48.1506 56.9745 48.5734C57.3879 49.025 57.4968 49.2844 57.5001 49.824C57.5049 50.2644 57.3911 50.66 57.1796 50.945C57.0018 51.1868 56.6381 51.4943 56.3737 51.6256C56.1094 51.7569 55.7136 51.8658 55.4925 51.8658C55.273 51.8658 54.8933 51.7665 54.6514 51.6464C54.4094 51.5263 54.0842 51.2381 53.9304 51.0059C53.7766 50.7737 53.65 50.2965 53.65 49.9441C53.65 49.5918 53.7766 49.0858 53.9304 48.8216Z" fill="#F7FCFF"/>
<path d="M8.64134 51.6656C8.72946 51.3085 8.98901 50.9034 9.28221 50.6648C9.62188 50.3893 9.97436 50.2644 10.4037 50.2644C10.7498 50.2644 11.2481 50.3909 11.5125 50.5447C11.7768 50.6984 12.1101 51.0411 12.2543 51.3053C12.4417 51.6496 12.4882 51.9907 12.4177 52.5064C12.3584 52.9403 12.1742 53.3727 11.9563 53.5921C11.756 53.7939 11.3586 54.0277 11.0719 54.1125C10.7354 54.2134 10.3669 54.2134 10.0304 54.1125C9.74364 54.0277 9.3495 53.7939 9.15244 53.5921C8.95697 53.3919 8.72786 53.0108 8.64454 52.7466C8.55001 52.4487 8.54841 52.0371 8.64134 51.6656Z" fill="#F7FCFF"/>
<path d="M49.8849 55.549C50.0162 55.2847 50.3239 54.9629 50.5658 54.8348C50.8077 54.7066 51.2403 54.5977 51.5271 54.5945C51.8139 54.5913 52.2641 54.697 52.5285 54.8283C52.7928 54.9597 53.1261 55.3024 53.2703 55.589C53.4513 55.9525 53.501 56.3272 53.4369 56.8301C53.3792 57.272 53.2014 57.6932 52.9755 57.919C52.7736 58.1208 52.3378 58.3546 52.0078 58.4394C51.5736 58.5499 51.2627 58.5323 50.8862 58.3802C50.5994 58.2633 50.2005 57.9574 50.0002 57.6996C49.7631 57.3954 49.6349 57.019 49.6397 56.6299C49.6413 56.3 49.7535 55.8132 49.8849 55.549Z" fill="#F7FCFF"/>
<path d="M29.3769 66.2782C29.3336 66.1901 29.457 65.8298 29.6524 65.4775C29.8479 65.1252 30.0754 64.8369 30.1555 64.8369C30.2372 64.8369 30.3654 65.1604 30.4407 65.5576C30.516 65.9547 30.5785 66.315 30.5785 66.3583C30.5785 66.4015 30.3269 66.4383 30.0177 66.4383C29.7085 66.4383 29.4201 66.3663 29.3769 66.2782Z" fill="#F7FCFF"/>
</svg>
