<svg width="36" height="36" viewBox="0 0 36 36" fill="none" xmlns="http://www.w3.org/2000/svg">
<g clip-path="url(#clip0_116_1704)">
<path d="M18 0C13.2272 0 8.64563 1.89759 5.27344 5.27203C1.8978 8.64783 0.000965949 13.226 0 18C0 22.772 1.89844 27.3535 5.27344 30.728C8.64563 34.1024 13.2272 36 18 36C22.7728 36 27.3544 34.1024 30.7266 30.728C34.1016 27.3535 36 22.772 36 18C36 13.228 34.1016 8.64647 30.7266 5.27203C27.3544 1.89759 22.7728 0 18 0Z" fill="#0098E3"/>
<path d="M8.14807 17.8101C13.3962 15.5241 16.8949 14.0169 18.6443 13.2887C23.6449 11.2094 24.6828 10.8483 25.3606 10.836C25.5096 10.8337 25.8415 10.8705 26.0581 11.0456C26.2381 11.1932 26.2887 11.3929 26.314 11.5331C26.3365 11.6732 26.3674 11.9924 26.3421 12.2416C26.0721 15.0878 24.8993 21.9948 24.3031 25.1827C24.0528 26.5316 23.5549 26.9839 23.074 27.028C22.0278 27.1242 21.2346 26.3373 20.2221 25.6738C18.6387 24.6352 17.7443 23.9888 16.2059 22.9755C14.4284 21.8044 15.5815 21.1606 16.594 20.1087C16.8584 19.8334 21.4653 15.6442 21.5524 15.2642C21.5637 15.2167 21.5749 15.0395 21.4681 14.9461C21.364 14.8524 21.2093 14.8845 21.0968 14.9098C20.9365 14.9458 18.4081 16.6187 13.5031 19.9282C12.7859 20.4215 12.1362 20.6619 11.5512 20.6493C10.9099 20.6355 9.67245 20.2859 8.75276 19.9872C7.62776 19.6207 6.73057 19.427 6.80932 18.8046C6.8487 18.4806 7.29588 18.149 8.14807 17.8101Z" fill="white"/>
</g>
<defs>
<clipPath id="clip0_116_1704">
<rect width="36" height="36" fill="white"/>
</clipPath>
</defs>
</svg>
