<svg width="21" height="21" viewBox="0 0 21 21" fill="none" xmlns="http://www.w3.org/2000/svg">
<path d="M19.9461 0.281756C19.5567 0.0292492 19.083 -0.0582777 18.6291 0.038425C18.1753 0.135128 17.7784 0.408141 17.5258 0.797423L7.71997 15.9122L2.9378 11.4905C2.76908 11.3345 2.57128 11.2133 2.3557 11.1337C2.14012 11.0541 1.91098 11.0178 1.68137 11.0268C1.21764 11.045 0.780114 11.2466 0.465048 11.5873C0.149982 11.9281 -0.0168182 12.38 0.0013416 12.8438C0.0195014 13.3075 0.221134 13.745 0.561882 14.0601L6.84088 19.8654C6.84088 19.8654 7.02113 20.0206 7.10455 20.0748C7.29735 20.2 7.51292 20.2859 7.73893 20.3277C7.96494 20.3695 8.19698 20.3663 8.42178 20.3185C8.64658 20.2706 8.85975 20.1789 9.04911 20.0486C9.23847 19.9183 9.4003 19.752 9.52538 19.5592L20.4617 2.70201C20.7142 2.31266 20.8018 1.83897 20.705 1.3851C20.6083 0.931233 20.3353 0.534357 19.9461 0.281756Z" fill="#31373D"/>
</svg>
