<svg width="50" height="56" viewBox="0 0 50 56" fill="none" xmlns="http://www.w3.org/2000/svg">
<path fill-rule="evenodd" clip-rule="evenodd" d="M46.4667 50.0671C48.362 47.3501 47.1537 19.459 44.4788 18.8982C41.1056 18.1912 2.16389 20.4407 1.96257 23.8008C1.7669 27.0663 1.97871 51.3229 4.92105 53.295C12.1908 58.1672 45.9356 50.8281 46.4667 50.0671Z" fill="#5E81A3"/>
<path fill-rule="evenodd" clip-rule="evenodd" d="M21.2635 9.76112C21.1983 9.65111 21.1317 9.54225 21.0643 9.43523C19.49 6.94161 16.8067 4.51163 14.6502 3.84442C13.3757 3.45014 12.2366 3.60448 11.3783 4.31928C9.4202 5.94983 9.56903 8.09018 11.0601 10.3288C11.9334 11.6399 13.3182 12.996 14.8172 14.248C13.7604 14.1764 12.7703 14.2879 11.9511 14.6524C11.0207 15.0663 10.43 15.8619 10.2263 16.8059C9.82716 18.6532 10.9998 21.2595 14.2962 21.7022C16.3524 21.9784 19.8785 22.3727 23.6927 20.2153C28.8271 20.031 33.0823 18.633 35.9807 17.0135C38.1154 15.8209 39.5364 14.4744 40.1456 13.3811C40.6335 12.5058 40.5982 11.7878 40.3622 11.2339C40.1247 10.6758 39.6329 10.2225 38.9349 9.95487C38.0141 9.6016 36.6631 9.58378 35.5884 9.86682C35.1088 9.99288 34.6039 10.1734 34.0825 10.3964C34.1555 10.3068 34.2265 10.218 34.2958 10.1294C35.7595 8.26401 36.2202 6.04034 35.9994 4.68159C35.846 3.73819 35.3669 3.11109 34.8026 2.82393C34.049 2.44098 33.2253 2.43449 32.3574 2.80286C31.4578 3.18431 30.4622 4.04835 29.4838 5.24618C29.0065 5.83043 28.5264 6.49756 28.0535 7.21499C28.2632 5.76231 28.3541 4.34202 28.1945 3.21934C28.0137 1.94444 27.5052 0.992425 26.746 0.4763C26.1728 0.0865063 25.4354 -0.104967 24.4844 0.0585883C23.7284 0.18852 23.1041 0.583054 22.6094 1.21603C22.0587 1.92064 21.6709 2.98002 21.4573 4.26423C21.1933 5.84922 21.1823 7.82444 21.2635 9.76112ZM21.0906 18.8214C18.4477 19.8462 16.0828 19.5421 14.6158 19.345C13.906 19.2496 13.3693 18.9868 13.0147 18.6204C12.6765 18.2717 12.5118 17.8382 12.5429 17.443C12.5639 17.1811 12.6786 16.934 12.9265 16.8238C13.9382 16.3739 15.3194 16.6091 16.6734 16.9929C18.3932 17.4804 20.0705 18.2847 21.0906 18.8214ZM38.0735 12.1905L38.0552 12.2274C37.5891 13.0638 36.4439 14.0268 34.8105 14.9392C32.8778 16.0191 30.2811 16.9806 27.1939 17.4846C28.0559 16.8855 29.0344 16.1856 30.0613 15.4818C32.1045 14.0813 34.3519 12.6524 36.1998 12.1657C36.4553 12.0986 36.7373 12.0584 37.0185 12.0465C37.239 12.0373 37.4592 12.0456 37.6657 12.075C37.7912 12.0929 37.9573 12.1477 38.0735 12.1905ZM21.3448 16.0803C19.3365 14.7769 16.3197 12.6838 14.2779 10.5204C13.542 9.74084 12.9359 8.95949 12.5944 8.20343C12.2489 7.43903 12.2272 6.71388 12.912 6.14358C13.0981 5.98872 13.3434 5.99109 13.6074 6.03507C13.9251 6.08828 14.2622 6.21671 14.6108 6.39326C16.2 7.1984 17.9352 8.95027 19.0405 10.7006C20.2026 12.5416 20.9376 14.6984 21.3448 16.0803ZM33.5937 4.90643C33.6203 5.01854 33.6648 5.2338 33.6654 5.40148C33.6689 6.32259 33.2671 7.57546 32.4121 8.66548C30.9006 10.5915 28.6579 12.6775 26.7988 14.2839C28.0823 11.6958 29.7247 8.72254 31.3389 6.74592C31.9272 6.0255 32.4984 5.44397 33.0523 5.11511C33.2486 4.99861 33.4248 4.88948 33.5937 4.90643ZM23.9178 14.116C23.6872 11.2991 23.3605 7.3853 23.8151 4.65254C23.9337 3.93958 24.1001 3.31933 24.3702 2.86238C24.5064 2.63167 24.6552 2.44256 24.891 2.40209C25.1013 2.36583 25.2713 2.35398 25.398 2.44019C25.5491 2.54308 25.623 2.73043 25.6929 2.94324C25.8721 3.48825 25.9116 4.19137 25.8852 4.96735C25.7712 8.34469 24.3093 12.9353 24.0577 13.7093C24.021 13.8225 23.9734 13.9599 23.9178 14.116Z" fill="#FF7FAE"/>
<path fill-rule="evenodd" clip-rule="evenodd" d="M0.775084 38.3236C1.52716 38.6049 3.64781 38.703 6.64299 38.5662C17.703 38.0617 41.6508 34.9722 49.064 33.3331C49.7078 33.1906 50.1144 32.5547 49.9714 31.9139C49.8283 31.2732 49.1892 30.8685 48.5454 31.011C41.2038 32.6347 17.4869 35.6903 6.53342 36.1901C4.02486 36.3045 2.24572 36.3324 1.61591 36.097C0.99837 35.8663 0.30875 36.1775 0.0765533 36.7921C-0.155379 37.4064 0.157451 38.0926 0.775084 38.3236Z" fill="#FF7FAE"/>
<path fill-rule="evenodd" clip-rule="evenodd" d="M22.5621 18.336C23.0105 29.4035 26.355 53.3765 26.8853 55.1498C27.0734 55.7789 27.7393 56.1378 28.3714 55.9504C29.0037 55.7634 29.3644 55.1007 29.1761 54.4716C28.6545 52.7266 25.3918 29.1315 24.9506 18.2403C24.924 17.5844 24.3674 17.0737 23.7082 17.1001C23.0492 17.1263 22.5359 17.6805 22.5621 18.336Z" fill="#FF7FAE"/>
</svg>
